<?xml version="1.0" standalone="no"?>
<!DOCTYPE svg PUBLIC "-//W3C//DTD SVG 20010904//EN"
 "http://www.w3.org/TR/2001/REC-SVG-20010904/DTD/svg10.dtd">
<svg version="1.0" xmlns="http://www.w3.org/2000/svg"
 width="300.000000pt" height="266.000000pt" viewBox="0 0 300.000000 266.000000"
 preserveAspectRatio="xMidYMid meet">
<metadata>
Created by potrace 1.10, written by Peter Selinger 2001-2011
</metadata>
<g transform="translate(0.000000,266.000000) scale(0.100000,-0.100000)"
fill="#000000" stroke="none">
<path d="M1345 2569 c-273 -47 -548 -170 -756 -337 -617 -496 -694 -1308 -172
-1802 251 -238 578 -360 963 -360 314 0 620 86 880 248 l65 40 212 -108 c171
-88 214 -106 223 -95 8 10 6 21 -8 46 -36 66 -182 355 -182 362 0 4 25 37 56
74 411 484 405 1152 -14 1566 -198 196 -439 318 -729 367 -153 26 -384 26
-538 -1z m495 -23 c14 -3 41 -9 60 -12 94 -15 308 -87 362 -121 21 -12 41 -23
46 -23 18 0 186 -120 246 -177 72 -69 148 -158 171 -202 14 -28 13 -29 -8 -30
-45 -1 -193 -19 -226 -26 -67 -14 -126 -49 -188 -109 l-63 -62 -1 31 c-2 106
-41 122 -222 90 -99 -17 -175 -48 -258 -105 -32 -22 -62 -40 -66 -40 -15 0
-83 75 -83 91 0 20 -64 78 -88 80 -9 1 -28 3 -41 4 -42 4 -124 -20 -168 -49
-61 -41 -95 -90 -101 -146 -4 -42 -1 -49 27 -78 18 -17 47 -34 66 -38 40 -7
43 -16 15 -46 -11 -12 -20 -31 -21 -42 0 -12 -2 -30 -5 -41 -2 -11 -7 -55 -10
-98 -4 -44 -8 -89 -9 -100 -1 -12 -3 -29 -4 -37 -1 -12 -15 -15 -66 -14 -36 0
-68 4 -71 7 -8 7 24 444 33 459 2 4 -3 21 -12 38 -14 28 -49 45 -90 44 -43 0
-106 -18 -124 -35 -21 -20 -23 -20 -48 -3 -22 14 -41 16 -118 10 -221 -15
-407 -129 -498 -305 -46 -88 -55 -124 -67 -266 -5 -66 -13 -145 -17 -175 -13
-98 -9 -131 18 -151 30 -23 60 -24 128 -3 96 28 97 32 117 259 3 39 7 72 9 73
8 8 84 22 123 22 l44 0 -6 -62 c-13 -133 -11 -157 14 -183 13 -14 31 -25 41
-25 49 0 124 25 153 51 30 26 34 27 55 13 19 -14 31 -14 114 0 183 31 227 43
252 66 20 19 28 21 53 12 40 -14 164 8 192 33 19 17 23 18 48 3 28 -16 35 -16
117 -4 84 13 94 30 109 185 4 40 16 47 105 57 l61 7 0 -79 c0 -103 17 -124
102 -124 32 0 58 -2 58 -4 0 -3 -18 -32 -40 -65 -48 -72 -52 -110 -14 -140 21
-16 41 -21 90 -21 79 0 192 23 246 51 62 32 133 104 164 167 24 49 28 70 29
142 0 93 -5 109 -75 219 -45 73 -50 108 -20 156 28 45 62 65 123 72 66 8 90
32 106 108 7 33 19 69 28 80 14 20 15 20 37 -8 31 -38 94 -212 107 -295 29
-187 16 -379 -37 -541 -45 -139 -144 -313 -248 -440 -69 -84 -69 -86 23 -267
55 -111 75 -160 66 -162 -8 -2 -84 33 -170 78 -86 45 -170 82 -186 82 -16 1
-51 -13 -81 -31 -71 -45 -259 -134 -338 -160 -86 -30 -250 -68 -341 -80 -76
-10 -354 -8 -399 3 -14 3 -41 9 -60 12 -328 56 -641 245 -811 489 -45 65 -127
218 -133 250 -2 11 -13 49 -24 85 -55 175 -47 422 21 630 81 248 256 480 497
662 100 75 287 177 390 213 133 46 312 89 415 98 56 5 345 0 375 -7z m890
-596 c0 -13 -7 -20 -20 -20 -13 0 -20 7 -20 20 0 13 7 20 20 20 13 0 20 -7 20
-20z m-55 -88 c-7 -66 -23 -82 -76 -82 -73 0 -125 -34 -161 -104 -28 -56 -20
-100 36 -181 46 -67 76 -145 76 -195 0 -87 -64 -201 -143 -253 -66 -44 -132
-64 -244 -72 -79 -6 -90 -5 -105 12 -17 18 -16 22 25 89 42 68 43 69 93 75
106 13 164 67 164 152 0 39 -7 58 -44 111 -74 107 -84 214 -31 322 57 117 158
182 299 193 111 9 120 4 111 -67z m-1121 17 c17 -14 26 -30 26 -50 0 -25 7
-33 45 -51 25 -12 45 -26 45 -30 0 -5 -27 -6 -59 -2 -56 6 -61 5 -87 -21 -69
-69 -208 -93 -258 -46 -51 48 -21 125 70 182 72 44 174 53 218 18z m644 -6 c5
-10 8 -22 6 -28 -1 -5 -15 -145 -29 -310 -16 -180 -31 -305 -38 -312 -7 -6
-46 -13 -87 -15 l-75 -3 3 102 c1 56 -1 104 -5 106 -5 3 -69 -6 -143 -19 -74
-13 -147 -24 -162 -24 -47 0 -31 -18 23 -25 l52 -7 -7 -77 c-4 -42 -13 -81
-19 -88 -19 -19 -150 -29 -163 -12 -11 15 -4 136 16 274 33 222 223 402 465
439 126 20 153 19 163 -1z m-1071 -129 c3 -8 -5 -132 -17 -275 -13 -143 -20
-262 -17 -266 3 -3 36 0 72 7 86 16 100 6 88 -66 l-8 -49 -169 -34 c-202 -40
-196 -42 -184 76 4 43 17 179 28 303 27 288 27 290 34 297 9 9 75 21 124 22
30 1 44 -4 49 -15z m-242 -14 c3 -5 1 -58 -5 -117 -12 -123 -13 -130 -36 -392
-11 -112 -23 -198 -30 -205 -17 -18 -145 -39 -157 -27 -7 7 -7 52 1 138 6 70
7 132 3 136 -5 4 -70 -3 -146 -17 -76 -15 -151 -26 -167 -26 -50 0 -30 -18 28
-26 50 -6 55 -9 50 -28 -3 -11 -8 -68 -12 -126 -4 -58 -11 -110 -16 -117 -12
-15 -144 -47 -163 -39 -20 7 -19 39 4 266 22 215 38 264 114 366 86 114 219
191 372 213 84 12 153 13 160 1z m765 -22 c0 -11 -52 -91 -65 -100 -6 -4 -15
5 -22 21 -7 16 -17 32 -23 36 -17 10 -12 24 14 37 28 15 96 19 96 6z m-115
-95 c-3 -21 -14 -132 -25 -246 -10 -115 -24 -215 -30 -222 -15 -18 -157 -32
-172 -17 -14 14 21 433 36 437 106 32 133 42 155 62 36 31 42 29 36 -14z m734
-222 c23 -36 41 -77 41 -93 0 -42 -52 -95 -101 -103 -22 -4 -42 -5 -44 -3 -2
2 2 22 9 43 8 22 17 80 21 130 9 129 8 128 74 26z"/>
<path d="M1930 1689 c-30 -16 -72 -47 -94 -67 -42 -40 -91 -111 -82 -119 3 -3
58 8 123 23 l118 29 11 75 c7 41 10 78 7 83 -8 13 -27 7 -83 -24z m40 -53 c0
-39 -30 -65 -82 -72 -57 -8 -60 2 -15 43 63 57 97 67 97 29z"/>
<path d="M625 1549 c-63 -34 -120 -84 -158 -141 -19 -29 -34 -55 -32 -56 4 -4
237 47 243 53 4 4 22 123 22 148 0 23 -26 22 -75 -4z m35 -53 c0 -38 -20 -65
-57 -75 -93 -26 -102 -4 -25 55 47 36 82 44 82 20z"/>
<path d="M197 1903 c-32 -51 -49 -83 -43 -83 2 0 13 15 24 33 11 19 27 46 37
60 9 15 15 27 11 27 -3 0 -16 -17 -29 -37z"/>
</g>
</svg>
